<?xml version="1.0" encoding="UTF-8" standalone="no"?>
<svg
   xmlns:dc="http://purl.org/dc/elements/1.1/"
   xmlns:cc="http://creativecommons.org/ns#"
   xmlns:rdf="http://www.w3.org/1999/02/22-rdf-syntax-ns#"
   xmlns:svg="http://www.w3.org/2000/svg"
   xmlns="http://www.w3.org/2000/svg"
   xmlns:sodipodi="http://sodipodi.sourceforge.net/DTD/sodipodi-0.dtd"
   xmlns:inkscape="http://www.inkscape.org/namespaces/inkscape"
   height="24"
   viewBox="0 0 24 24"
   width="24"
   version="1.1"
   id="svg855"
   sodipodi:docname="power_icon1.svg"
   inkscape:version="0.92.4 (5da689c313, 2019-01-14)">
  <metadata
     id="metadata861">
    <rdf:RDF>
      <cc:Work
         rdf:about="">
        <dc:format>image/svg+xml</dc:format>
        <dc:type
           rdf:resource="http://purl.org/dc/dcmitype/StillImage" />
      </cc:Work>
    </rdf:RDF>
  </metadata>
  <defs
     id="defs859" />
  <sodipodi:namedview
     pagecolor="#ffffff"
     bordercolor="#666666"
     borderopacity="1"
     objecttolerance="10"
     gridtolerance="10"
     guidetolerance="10"
     inkscape:pageopacity="0"
     inkscape:pageshadow="2"
     inkscape:window-width="1366"
     inkscape:window-height="715"
     id="namedview857"
     showgrid="false"
     inkscape:zoom="16.086679"
     inkscape:cx="15.914232"
     inkscape:cy="11.638704"
     inkscape:window-x="-8"
     inkscape:window-y="-8"
     inkscape:window-maximized="1"
     inkscape:current-layer="svg855" />
  <g
     id="g1001"
     transform="translate(0,0.12432643)">
    <path
       id="path851"
       d="M 0,0 H 24 V 24 H 0 Z"
       inkscape:connector-curvature="0"
       style="fill:none" />
    <path
       style="stroke-width:0.74444002"
       inkscape:connector-curvature="0"
       id="path853"
       d="m 12.620114,5.3622029 h -1.48888 v 7.4444011 h 1.48888 z m 3.595645,1.6154349 -1.057105,1.0571048 c 1.176215,0.945439 1.9281,2.3970974 1.9281,4.0274214 0,2.880983 -2.330097,5.21108 -5.21108,5.21108 -2.8809831,0 -5.2110807,-2.330097 -5.2110807,-5.21108 0,-1.630324 0.7518844,-3.0819824 1.9206556,-4.0348654 L 7.5355881,6.9776378 C 6.0913744,8.2059636 5.1757132,10.022398 5.1757132,12.062164 c 0,3.699867 3.0000937,6.69996 6.6999608,6.69996 3.699867,0 6.69996,-3.000093 6.69996,-6.69996 0,-2.039766 -0.915661,-3.8562004 -2.359875,-5.0845262 z" />
    <path
       id="path865"
       d="M 25.196482,2.4123609 A 8.4868202,8.4868202 0 0 1 16.709661,10.899181 8.4868202,8.4868202 0 0 1 8.2228413,2.4123609 8.4868202,8.4868202 0 0 1 16.709661,-6.0744593 8.4868202,8.4868202 0 0 1 25.196482,2.4123609 Z"
       style="fill:none;stroke:#000000;stroke-width:0.75;stroke-linecap:round;stroke-miterlimit:4;stroke-dasharray:0.75, 1.5;stroke-dashoffset:0.75;stroke-opacity:1"
       transform="rotate(37.095341)"
       inkscape:connector-curvature="0" />
    <path
       id="path865-4"
       d="M 26.848696,2.5711911 A 10.017586,9.9539595 0 0 1 16.83111,12.525151 10.017586,9.9539595 0 0 1 6.8135242,2.5711911 10.017586,9.9539595 0 0 1 16.83111,-7.3827684 10.017586,9.9539595 0 0 1 26.848696,2.5711911 Z"
       style="fill:none;stroke:#000000;stroke-width:0.5000633;stroke-linecap:round;stroke-miterlimit:4;stroke-dasharray:0.50006329, 1.50018986;stroke-dashoffset:1.7252183;stroke-opacity:1"
       transform="matrix(0.80434795,0.59415855,-0.61210853,0.79077377,0,0)"
       inkscape:connector-curvature="0" />
    <path
       id="path865-46"
       d="M 27.22352,5.0319829 A 10.877859,10.877859 0 0 1 16.345661,15.909842 10.877859,10.877859 0 0 1 5.467802,5.0319829 10.877859,10.877859 0 0 1 16.345661,-5.8458762 10.877859,10.877859 0 0 1 27.22352,5.0319829 Z"
       style="fill:none;stroke:#000000;stroke-width:0.23599145;stroke-linecap:round;stroke-miterlimit:4;stroke-dasharray:0.23599144, 1.88793155;stroke-dashoffset:0.0552356;stroke-opacity:1"
       transform="rotate(28.195454)"
       inkscape:connector-curvature="0" />
  </g>
</svg>
