<?xml version="1.0" encoding="UTF-8" standalone="no"?>
<svg
   xmlns:dc="http://purl.org/dc/elements/1.1/"
   xmlns:cc="http://creativecommons.org/ns#"
   xmlns:rdf="http://www.w3.org/1999/02/22-rdf-syntax-ns#"
   xmlns:svg="http://www.w3.org/2000/svg"
   xmlns="http://www.w3.org/2000/svg"
   xmlns:sodipodi="http://sodipodi.sourceforge.net/DTD/sodipodi-0.dtd"
   xmlns:inkscape="http://www.inkscape.org/namespaces/inkscape"
   height="24"
   viewBox="0 0 24 24"
   width="24"
   version="1.1"
   id="svg831"
   sodipodi:docname="power_icon2.svg"
   inkscape:version="0.92.4 (5da689c313, 2019-01-14)">
  <metadata
     id="metadata837">
    <rdf:RDF>
      <cc:Work
         rdf:about="">
        <dc:format>image/svg+xml</dc:format>
        <dc:type
           rdf:resource="http://purl.org/dc/dcmitype/StillImage" />
        <dc:title></dc:title>
      </cc:Work>
    </rdf:RDF>
  </metadata>
  <defs
     id="defs835" />
  <sodipodi:namedview
     pagecolor="#ffffff"
     bordercolor="#666666"
     borderopacity="1"
     objecttolerance="10"
     gridtolerance="10"
     guidetolerance="10"
     inkscape:pageopacity="0"
     inkscape:pageshadow="2"
     inkscape:window-width="1366"
     inkscape:window-height="715"
     id="namedview833"
     showgrid="false"
     inkscape:zoom="22.627417"
     inkscape:cx="15.071905"
     inkscape:cy="12.035725"
     inkscape:window-x="-8"
     inkscape:window-y="-8"
     inkscape:window-maximized="1"
     inkscape:current-layer="svg831" />
  <path
     d="M0 0h24v24H0V0zm0 0h24v24H0V0z"
     fill="none"
     id="path827" />
  <path
     style="fill:#004141;fill-opacity:1;stroke-width:1.08072305"
     d="m 10.294775,3.4765625 v 4.3235619 h -0.01038 C 9.1064357,7.7893476 8.1347197,8.7614896 8.1347197,9.9394766 v 5.9660324 l 0.5382891,0.538288 c 3.2851342,-3.279735 8.6045652,-3.281964 11.8872072,-0.0068 l 0.541739,-0.545191 V 9.9601802 c 0,-1.1887957 -0.97126,-2.1600558 -2.160055,-2.1600558 V 3.4765625 h -2.163507 v 4.3235619 h -4.32011 V 3.4765625 Z m 4.327013,12.0321305 c -1.761344,0 -3.525103,0.671482 -4.8687509,2.015132 l 1.0834779,1.080027 c 2.091352,-2.085946 5.476238,-2.087055 7.563646,-0.0034 l 1.080027,-1.080029 c -1.342961,-1.340028 -3.099431,-2.011681 -4.8584,-2.011681 z m 0,3.057204 c -0.978673,0 -1.959074,0.375268 -2.705246,1.121435 v 3.240084 h 5.40359 v -3.240084 c -0.745928,-0.744881 -1.720514,-1.121435 -2.698344,-1.121435 z m 0,1.528601 c 0.58734,0 1.175684,0.224077 1.621767,0.672862 l -1.621767,1.621768 -1.625217,-1.621768 c 0.448784,-0.448785 1.037877,-0.672862 1.625217,-0.672862 z"
     id="path1437"
     inkscape:connector-curvature="0" />
</svg>
